<svg width="35" height="26" viewBox="0 0 35 26" fill="none" xmlns="http://www.w3.org/2000/svg">
<path d="M26.573 6.73524C26.573 8.5951 25.0653 10.1028 23.2055 10.1028C21.3456 10.1028 19.8379 8.5951 19.8379 6.73524C19.8379 4.87539 21.3456 3.36768 23.2055 3.36768C25.0653 3.36768 26.573 4.87539 26.573 6.73524Z" stroke="#898989" stroke-width="2.02054"/>
<path d="M16.2862 15.8383L17.036 15.3384C18.863 14.1204 21.0097 13.4705 23.2055 13.4705C25.4014 13.4705 27.5481 14.1204 29.3751 15.3384L30.1249 15.8383C31.0617 16.4629 31.6245 17.5143 31.6245 18.6403V20.3178C31.6245 21.1858 30.9209 21.8894 30.0529 21.8894H23.2055H16.3582C15.4902 21.8894 14.7866 21.1858 14.7866 20.3178V18.6403C14.7866 17.5143 15.3493 16.4629 16.2862 15.8383Z" stroke="#898989" stroke-width="2.02054" stroke-linecap="round" stroke-linejoin="round"/>
<path d="M15.1541 6.73524C15.1541 8.5951 13.6464 10.1028 11.7865 10.1028C9.92666 10.1028 8.41895 8.5951 8.41895 6.73524C8.41895 4.87539 9.92666 3.36768 11.7865 3.36768C13.6464 3.36768 15.1541 4.87539 15.1541 6.73524Z" stroke="#898989" stroke-width="2.02054"/>
<path d="M11.7866 13.4705C9.59077 13.4705 7.44408 14.1204 5.61704 15.3384L4.86725 15.8383C3.9304 16.4629 3.36768 17.5143 3.36768 18.6403V20.3178C3.36768 21.1858 4.07127 21.8894 4.93921 21.8894H11.0001" stroke="#898989" stroke-width="2.02054" stroke-linecap="round" stroke-linejoin="round"/>
</svg>
