<svg width="22" height="24" viewBox="0 0 22 24" fill="none" xmlns="http://www.w3.org/2000/svg">
<g clip-path="url(#clip0_14022_9361)">
<path d="M1.68359 4.2096C3.26322 4.2096 4.74012 4.99267 5.62648 6.30019L6.46211 7.53286L7.58853 9.19449M20.33 17.5026H15.4051C14.0847 17.5026 12.8168 16.9856 11.8729 16.0623L10.9444 15.1541M20.33 17.5026L16.8377 21.0474M20.33 17.5026L16.8377 13.9577" stroke="#898989" stroke-width="2.02054" stroke-linecap="round" stroke-linejoin="round"/>
<path d="M1.68359 19.5319C3.26714 19.5319 4.75171 18.7616 5.66345 17.4668L11.8363 8.70098C12.7824 7.35737 14.323 6.55799 15.9664 6.55799H20.3299M20.3299 6.55799L16.8376 3.01318M20.3299 6.55799L16.8376 10.1028" stroke="#898989" stroke-width="2.02054" stroke-linecap="round" stroke-linejoin="round"/>
</g>
<defs>
<clipPath id="clip0_14022_9361">
<rect width="21.8892" height="23.573" fill="white"/>
</clipPath>
</defs>
</svg>
